<?xml version="1.0" encoding="UTF-8"?>
<svg id="Layer_1" data-name="Layer 1" xmlns="http://www.w3.org/2000/svg" viewBox="0 0 960 960">
  <defs>
    <style>
      .cls-1 {
        fill-rule: evenodd;
      }

      .cls-1, .cls-2 {
        fill: #111;
        stroke-width: 0px;
      }
    </style>
  </defs>
  <path class="cls-2" d="M251.37,435.37h43.18c31.21,0,39.19,18.38,39.19,33.33s-8.06,33.33-39.19,33.33h-26.68v52.57h-16.51v-119.22ZM267.96,487.94h21.83c13.14,0,26.21-2.97,26.21-19.17s-13.14-19.17-26.21-19.17h-21.83v38.33Z"/>
  <path class="cls-2" d="M355.42,434.83c6.26,0,11.34,4.93,11.42,10.95.08,6.1-4.85,11.11-11.11,11.26s-11.42-4.62-11.66-10.72c-.08-3.05,1.1-5.95,3.21-8.14,2.03-2.11,5.01-3.36,8.14-3.36ZM347.75,474.8h15.33v79.87h-15.33v-79.87Z"/>
  <path class="cls-2" d="M380.92,474.8h15.57v12.36h.39c5.4-9.39,15.88-15.02,26.91-14.32,15.88,0,29.57,9.31,29.57,30.51v51.4h-15.33v-47.09c0-15.02-8.84-20.57-18.7-20.57-12.91,0-22.76,8.06-22.76,26.6v41.07h-15.65v-79.95Z"/>
  <path class="cls-2" d="M481.76,520.33c0,13.92,13.3,23.08,27.61,23.08,9-.23,17.37-4.69,22.45-11.89l11.81,8.76c-8.61,11.03-22.22,17.21-36.38,16.51-25.97,0-42.09-18.15-42.09-41.93-.47-11.11,3.83-21.9,11.81-29.81s18.93-12.28,30.35-12.13c28.87,0,39.9,21.51,39.9,42.09v5.4h-65.48v-.08ZM530.89,508.21c-.39-13.3-7.98-23.08-23.63-23.08-13.38-.08-24.56,10.01-25.42,23.08h49.05Z"/>
  <path class="cls-2" d="M617.64,496.08c-5.08-5.87-12.52-9.15-20.42-8.92-16.9,0-25.58,13.3-25.58,28.32-.39,7.12,2.19,14,7.2,19.17s11.97,8.06,19.24,7.98c7.67.23,15.02-3.05,19.87-8.92l11.03,10.64c-8.06,8.29-19.4,12.75-31.06,12.28-11.5.55-22.69-3.6-30.82-11.58-8.14-7.9-12.52-18.85-11.97-30.04-.55-11.26,3.83-22.22,11.97-30.2,8.14-7.98,19.32-12.28,30.9-11.89,11.81-.31,23.23,4.3,31.45,12.59l-11.81,10.56Z"/>
  <path class="cls-2" d="M674.98,472.77c23.63.39,42.56,19.32,42.32,42.4s-19.56,41.62-43.26,41.46c-23.63-.16-42.79-18.85-42.79-41.93,0-11.26,4.62-21.98,12.83-29.88,8.29-7.9,19.4-12.2,30.9-12.05ZM674.98,542.55c16.51,0,26.91-11.5,26.91-27.85s-10.4-27.77-26.91-27.77-26.99,11.5-26.99,27.77,10.4,27.85,26.99,27.85Z"/>
  <path class="cls-2" d="M731.15,474.8h15.57v12.36c5.4-9.47,15.96-15.02,26.99-14.32,15.88,0,29.57,9.31,29.57,30.51v51.4h-15.57v-47.09c0-15.02-8.84-20.57-18.62-20.57-12.99,0-22.76,8.06-22.76,26.6v41.07h-15.1v-79.95h-.08Z"/>
  <path class="cls-2" d="M832.15,520.33c0,13.92,13.3,23.08,27.61,23.08,9-.31,17.37-4.69,22.45-11.89l11.81,8.76c-8.61,10.95-22.14,17.05-36.3,16.27-25.89,0-42.09-18.15-42.09-41.93-.47-11.11,3.83-21.98,11.81-29.88,7.98-7.98,19.01-12.28,30.43-12.05,28.87,0,39.9,21.51,39.9,42.09v5.4l-65.63.16ZM881.2,508.13c-.39-13.3-7.9-23.08-23.63-23.08-13.38-.08-24.56,10.01-25.42,23.08h49.05Z"/>
  <path class="cls-1" d="M157.97,400.17c-1.64-1.96-4.38-2.43-6.57-1.17l-2.03,1.1-22.14,12.59,5.16,9.07,14.39-8.21-3.52,19.24,10.25,1.88,3.6-19.32,10.64,12.67,7.98-6.73-16.12-19.24h-.08l-1.56-1.88ZM126.91,562.5c5.32,0,9.62-4.22,9.62-9.39s-4.3-9.39-9.62-9.39-9.62,4.22-9.62,9.39c-.08,5.16,4.3,9.39,9.62,9.39ZM139.82,510.94l-3.44,19.32-10.33-1.88,3.44-19.24-14.39,8.29-5.24-9.07,21.98-12.59,2.03-1.17c2.19-1.25,4.93-.78,6.57,1.17l1.56,1.88,16.35,19.17-7.98,6.81-10.56-12.67ZM148.19,464.79l-3.44,19.32-10.33-1.88,3.44-19.17-14.32,8.21-5.16-9.07,21.9-12.52v-.16h.16l2.03-1.17c2.19-1.25,4.93-.78,6.57,1.17l1.56,1.8,16.27,19.24-7.98,6.81-10.72-12.59ZM80.68,541.14h-.08l-2.11-.63c-2.27-.63-3.75-2.82-3.6-5.16l1.88-26.13,9.94.7-1.17,15.88,15.41-10.48,5.55,8.21-15.1,10.25,15.41,4.46-2.74,9.54-23.39-6.65ZM182.92,551.94l-.7,2.27c-.7,2.19-2.74,3.68-5.08,3.52l-2.19-.16-.16.08-.08-.08-24.25-1.64.63-9.94,16.12,1.1-10.56-14.79,8.06-5.79,10.8,15.18,4.69-15.33,9.47,2.89-6.73,22.69ZM211.4,498.11l1.17,2.11c1.17,2.11.7,4.77-1.17,6.34l-1.72,1.49v.08h-.08l-18.85,15.96-6.57-7.74,12.36-10.48-18.54-3.29,1.8-10.01,18.7,3.29-7.82-14.08,8.84-4.93,11.89,21.28ZM192.23,454.46l-16.74,9-4.85-8.92,16.51-8.84-15.1-6.18,3.83-9.39,23,9.31.08-.08.08.16,2.11.86c2.27.94,3.52,3.29,3.13,5.63l-.39,2.35-4.3,23.86-10.01-1.8,2.66-15.96ZM79.89,475.43l18.62,3.13-1.72,10.01-18.77-3.21,7.98,14.08-8.84,5.01-12.05-21.2-1.17-2.03c-1.17-2.11-.7-4.77,1.1-6.34l1.72-1.49v-.08h.08l18.62-16.04,6.65,7.74-12.2,10.4ZM107.98,432.09l12.36,13.77-7.59,6.81-12.67-14.08-2.89,16.04-10.01-1.8,4.38-23.78.47-2.43c.39-2.35,2.43-4.07,4.77-4.15l2.19-.08.08-.08.08.08,24.88-1.02.39,10.17-16.43.55Z"/>
</svg>