<svg xmlns="http://www.w3.org/2000/svg" width="1596" height="480"><path fill="#f22f46" fill-rule="evenodd" d="M240 480C107.3 480 0 372.7 0 240S107.3 0 240 0s240 107.3 240 240-107.3 240-240 240m176-240c0-97.3-78.7-176-176-176S64 142.7 64 240s78.7 176 176 176 176-78.7 176-176m-235.2-9.6c-27.4 0-49.6-22.2-49.6-49.6s22.2-49.6 49.6-49.6 49.6 22.2 49.6 49.6-22.2 49.6-49.6 49.6m0 118.4c-27.4 0-49.6-22.2-49.6-49.6s22.2-49.6 49.6-49.6 49.6 22.2 49.6 49.6-22.2 49.6-49.6 49.6m118.4 0c-27.4 0-49.6-22.2-49.6-49.6s22.2-49.6 49.6-49.6 49.6 22.2 49.6 49.6-22.2 49.6-49.6 49.6m0-118.4c-27.4 0-49.6-22.2-49.6-49.6s22.2-49.6 49.6-49.6 49.6 22.2 49.6 49.6-22.2 49.6-49.6 49.6m825.6-136c1.6 0 3.2 1.6 4.8 3.2v51.2c0 3.2-3.2 4.8-4.8 4.8H1040c-3.2 0-4.8-3.2-4.8-4.8V99.2c0-3.2 3.2-4.8 4.8-4.8zm1.6 76.8V384c0 3.2-3.2 4.8-4.8 4.8H1040c-3.2 0-4.8-3.2-4.8-4.8V182.4L974.4 384c0 3.2-3.2 4.8-4.8 4.8h-67.2c-1.6 0-4.8-3.2-4.8-4.8l-12.8-43.2-14.4-46.4-28.8 89.6c0 3.2-3.2 4.8-4.8 4.8h-67.2c-1.6 0-4.8-3.2-4.8-4.8L704 182.4v51.2c0 3.2-3.2 4.8-4.8 4.8h-46.4v54.4c0 16 8 22.4 22.4 22.4 6.4 0 14.4-1.6 22.4-4.8 1.6-1.6 4.8 0 4.8 3.2v64c-14.4 8-35.2 12.8-57.6 12.8-52.8 0-81.6-24-81.6-76.8v-75.2h-20.8c-3.2 0-4.8-3.2-4.8-4.8v-60.8c0-3.2 3.2-4.8 4.8-4.8h20.8v-43.2q0-4.8 4.8-4.8l80-25.6c3.2-1.6 6.4 1.6 6.4 3.2v68.8h128c1.6 0 4.8 3.2 4.8 4.8l19.2 80 1.6 4.8 1.6-4.8 24-80c0-3.2 3.2-4.8 4.8-4.8h64c1.6 0 4.8 3.2 4.8 4.8l25.6 84.8 1.6-4.8 20.8-80c0-3.2 3.2-4.8 4.8-4.8h163.2c1.6 0 3.2 3.2 3.2 4.8m108.8-73.6v284.8c0 3.2-3.2 4.8-4.8 4.8h-81.6c-3.2 0-4.8-3.2-4.8-4.8V99.2c0-3.2 3.2-4.8 4.8-4.8h81.6c3.2 0 4.8 1.6 4.8 3.2m108.8 0v51.2c0 3.2-3.2 4.8-4.8 4.8h-84.8c-3.2 0-4.8-3.2-4.8-4.8V99.2c0-3.2 3.2-4.8 4.8-4.8h84.8c3.2 0 4.8 1.6 4.8 3.2m-1.6 73.6v209.6c0 3.2-3.2 4.8-4.8 4.8H1256c-3.2 0-4.8-3.2-4.8-4.8V171.2c0-3.2 3.2-4.8 4.8-4.8h81.6c3.2 0 4.8 3.2 4.8 4.8m130.4 217.6c-67.7 0-122.4-50.8-122.4-113.6s54.7-113.6 122.4-113.6 122.4 50.8 122.4 113.6-54.7 113.6-122.4 113.6m36-112c0-21.3-15.7-38.5-35.2-38.5s-35.2 17.2-35.2 38.5c0 21.2 15.7 38.4 35.2 38.4s35.2-17.2 35.2-38.4"/></svg>